<svg width="202" height="233" viewBox="0 0 202 233" fill="none" xmlns="http://www.w3.org/2000/svg">
<path d="M111.036 170.332V85.0886H140.458C144.553 85.0886 148.129 86.0226 151.187 87.9083C154.244 89.794 156.628 92.4727 158.353 95.9269C160.078 99.3986 160.933 103.522 160.933 108.281C160.933 113.621 159.938 118.114 157.932 121.78C155.927 125.446 152.631 128.072 148.031 129.64V129.922C150.64 130.697 152.729 131.949 154.286 133.64C155.843 135.332 156.993 137.57 157.736 140.32C158.479 143.087 158.956 146.47 159.166 150.506C159.278 154.048 159.447 156.991 159.657 159.335C159.868 161.679 160.092 163.582 160.344 165.01C160.597 166.437 160.877 167.53 161.172 168.288C161.466 169.028 161.775 169.557 162.111 169.856V170.297H155.254C154.833 169.803 154.468 168.993 154.16 167.865C153.851 166.719 153.585 164.834 153.374 162.19C153.164 159.547 152.954 155.74 152.757 150.788C152.519 144.743 151.285 140.302 149.069 137.447C146.839 134.592 143.319 133.165 138.481 133.165H117.473V170.297H111.064L111.036 170.332ZM117.445 126.644H138.271C143.698 126.644 147.737 125.111 150.373 122.027C153.01 118.943 154.328 114.731 154.328 109.356C154.328 103.981 153.038 99.4339 150.457 96.4908C147.877 93.5477 144.006 92.0674 138.846 92.0674H117.431V126.626L117.445 126.644Z" fill="black"/>
<path d="M94.7965 170.332V133.2H73.7887C68.9505 133.2 65.4164 134.627 63.2006 137.482C60.9708 140.337 59.7508 144.778 59.5123 150.823C59.302 155.775 59.0916 159.582 58.8953 162.225C58.6849 164.869 58.4325 166.772 58.11 167.9C57.8014 169.045 57.4368 169.856 57.0161 170.332H50.1584V169.891C50.4809 169.592 50.8035 169.063 51.098 168.323C51.3925 167.583 51.673 166.49 51.9254 165.045C52.1778 163.6 52.4022 161.714 52.6126 159.37C52.8229 157.026 52.9912 154.083 53.1034 150.541C53.3138 146.505 53.7906 143.122 54.5339 140.355C55.2771 137.588 56.4271 135.367 57.9837 133.676C59.5404 131.984 61.63 130.733 64.2384 129.957V129.675C59.6386 128.107 56.3429 125.481 54.3375 121.815C52.3321 118.15 51.3364 113.638 51.3364 108.316C51.3364 103.54 52.1919 99.4162 53.9168 95.962C55.6417 92.4903 58.0258 89.8115 61.083 87.9435C64.1402 86.0578 67.7163 85.1238 71.8113 85.1238H101.234V170.367H94.8246L94.7965 170.332ZM94.7965 92.0849H73.382C68.2212 92.0849 64.3506 93.5653 61.7702 96.5084C59.1898 99.4514 57.8996 103.734 57.8996 109.373C57.8996 115.013 59.2178 118.96 61.8543 122.044C64.4908 125.128 68.5297 126.662 73.957 126.662H94.7825V92.1026L94.7965 92.0849Z" fill="black"/>
<path d="M24.9854 54.6006C28.0293 54.6006 30.4968 51.4998 30.4968 47.6747C30.4968 43.8496 28.0293 40.7488 24.9854 40.7488C21.9415 40.7488 19.474 43.8496 19.474 47.6747C19.474 51.4998 21.9415 54.6006 24.9854 54.6006Z" fill="black"/>
<path d="M195.671 114.519C198.715 114.519 201.182 111.418 201.182 107.593C201.182 103.768 198.715 100.667 195.671 100.667C192.627 100.667 190.159 103.768 190.159 107.593C190.159 111.418 192.627 114.519 195.671 114.519Z" fill="black"/>
<path d="M81.8664 229.493C84.9103 229.493 87.3778 226.392 87.3778 222.567C87.3778 218.742 84.9103 215.641 81.8664 215.641C78.8226 215.641 76.355 218.742 76.355 222.567C76.355 226.392 78.8226 229.493 81.8664 229.493Z" fill="black"/>
<path d="M24.9854 47.6746L81.8664 222.567" stroke="black" stroke-miterlimit="10"/>
<path d="M195.671 107.594L81.8665 222.567" stroke="black" stroke-miterlimit="10"/>
<path d="M24.9854 47.6746L195.671 107.593" stroke="black" stroke-miterlimit="10"/>
<path d="M200 116.5C200 180.433 155.319 232 100.5 232C45.6812 232 1 180.433 1 116.5C1 52.5674 45.6812 1 100.5 1C155.319 1 200 52.5674 200 116.5Z" stroke="black" stroke-width="2"/>
</svg>
