<svg width="48" height="44" viewBox="0 0 48 44" fill="none" xmlns="http://www.w3.org/2000/svg">
<rect width="48" height="44" fill="white"/>
<path d="M24.2577 27.86V14.3625H29.2175C29.9078 14.3625 30.5106 14.5104 31.026 14.809C31.5414 15.1076 31.9433 15.5317 32.2341 16.0787C32.5248 16.6284 32.669 17.2813 32.669 18.0348C32.669 18.8803 32.5012 19.5918 32.1631 20.1723C31.8251 20.7527 31.2695 21.1685 30.4941 21.4168V21.4615C30.9338 21.5842 31.2861 21.7824 31.5485 22.0502C31.8109 22.3181 32.0047 22.6725 32.13 23.1078C32.2553 23.5459 32.3357 24.0817 32.3712 24.7207C32.3901 25.2816 32.4184 25.7476 32.4539 26.1187C32.4894 26.4899 32.5272 26.7912 32.5697 27.0173C32.6123 27.2433 32.6596 27.4163 32.7092 27.5363C32.7589 27.6535 32.8109 27.7372 32.8676 27.7846V27.8544H31.7116C31.6407 27.7763 31.5792 27.6479 31.5272 27.4693C31.4752 27.2879 31.4303 26.9894 31.3948 26.5708C31.3593 26.1522 31.3239 25.5495 31.2908 24.7654C31.2506 23.8082 31.0426 23.105 30.669 22.653C30.2932 22.2009 29.6998 21.9749 28.8842 21.9749H25.3428V27.8544H24.2624L24.2577 27.86ZM25.3381 20.9424H28.8487C29.7636 20.9424 30.4445 20.6997 30.8889 20.2113C31.3333 19.723 31.5556 19.0561 31.5556 18.205C31.5556 17.3539 31.3381 16.634 30.9031 16.1679C30.4681 15.7019 29.8156 15.4675 28.9456 15.4675H25.3357V20.9396L25.3381 20.9424Z" fill="black"/>
<path d="M21.5201 27.86V21.9805H17.9788C17.1631 21.9805 16.5674 22.2065 16.1939 22.6586C15.818 23.1106 15.6123 23.8138 15.5721 24.7709C15.5367 25.5551 15.5012 26.1578 15.4681 26.5764C15.4327 26.9949 15.3901 27.2963 15.3357 27.4749C15.2837 27.6563 15.2222 27.7846 15.1513 27.86H13.9953V27.7902C14.0497 27.7428 14.104 27.6591 14.1537 27.5419C14.2033 27.4247 14.2506 27.2517 14.2932 27.0228C14.3357 26.794 14.3736 26.4955 14.409 26.1243C14.4445 25.7532 14.4728 25.2872 14.4918 24.7263C14.5272 24.0873 14.6076 23.5515 14.7329 23.1134C14.8582 22.6753 15.052 22.3237 15.3144 22.0558C15.5769 21.7879 15.9291 21.5898 16.3688 21.467V21.4224C15.5934 21.174 15.0379 20.7583 14.6998 20.1778C14.3617 19.5974 14.1939 18.8831 14.1939 18.0404C14.1939 17.2841 14.3381 16.6312 14.6289 16.0842C14.9197 15.5345 15.3215 15.1104 15.8369 14.8146C16.3523 14.516 16.9551 14.3681 17.6454 14.3681H22.6052V27.8656H21.5249L21.5201 27.86ZM21.5201 15.4703H17.9102C17.0402 15.4703 16.3877 15.7047 15.9527 16.1707C15.5178 16.6367 15.3003 17.3148 15.3003 18.2078C15.3003 19.1007 15.5225 19.7258 15.9669 20.2141C16.4114 20.7025 17.0922 20.9452 18.0071 20.9452H21.5178V15.4731L21.5201 15.4703Z" fill="black"/>
<path d="M9.75177 9.53501C10.2649 9.53501 10.6808 9.04402 10.6808 8.43836C10.6808 7.83269 10.2649 7.34171 9.75177 7.34171C9.23866 7.34171 8.82269 7.83269 8.82269 8.43836C8.82269 9.04402 9.23866 9.53501 9.75177 9.53501Z" fill="black"/>
<path d="M38.5248 19.0226C39.0379 19.0226 39.4539 18.5316 39.4539 17.9259C39.4539 17.3203 39.0379 16.8293 38.5248 16.8293C38.0117 16.8293 37.5957 17.3203 37.5957 17.9259C37.5957 18.5316 38.0117 19.0226 38.5248 19.0226Z" fill="black"/>
<path d="M19.3404 37.2275C19.8535 37.2275 20.2695 36.7366 20.2695 36.1309C20.2695 35.5252 19.8535 35.0342 19.3404 35.0342C18.8273 35.0342 18.4113 35.5252 18.4113 36.1309C18.4113 36.7366 18.8273 37.2275 19.3404 37.2275Z" fill="black"/>
<path d="M9.75177 8.43835L19.3404 36.1309" stroke="black" stroke-width="0.15" stroke-miterlimit="10"/>
<path d="M38.5249 17.9259L19.3405 36.1309" stroke="black" stroke-width="0.15" stroke-miterlimit="10"/>
<path d="M9.75177 8.43835L38.5248 17.9259" stroke="black" stroke-width="0.15" stroke-miterlimit="10"/>
</svg>
