<?xml version="1.0" encoding="UTF-8"?><svg xmlns="http://www.w3.org/2000/svg" viewBox="0 0 372.48 80.16"><defs><style>.e{fill:#fff;}</style></defs><g id="a"/><g id="b"/><g id="c"/><g id="d"><path class="e" d="M10.57,68.57V17.09h4.82v47.02h27.43v4.46H10.57Z"/><path class="e" d="M45.13,68.57l19.44-51.48h5.47l19.58,51.48h-5.18l-5.98-16.2h-22.39l-6.05,16.2h-4.9Zm12.38-20.16h19.51l-7.06-19.22-2.59-7.49h-.14c-.91,2.93-1.75,5.42-2.52,7.49l-7.2,19.22Z"/><path class="e" d="M126.78,69.5c-7.1,0-12.74-2.45-16.92-7.34-4.18-4.9-6.26-11.33-6.26-19.3s2.11-14.38,6.34-19.37c4.22-4.99,9.91-7.49,17.06-7.49,5.38,0,9.8,1.39,13.28,4.18,3.48,2.78,5.65,6.6,6.52,11.45h-4.75c-.72-3.46-2.4-6.23-5.04-8.32-2.64-2.09-6-3.13-10.08-3.13-5.81,0-10.31,2.12-13.5,6.37-3.19,4.25-4.79,9.68-4.79,16.31s1.6,12.01,4.79,16.16c3.19,4.15,7.67,6.23,13.43,6.23,4.75,0,8.52-1.44,11.3-4.32,2.78-2.88,4.39-6.58,4.82-11.09h4.68c-.29,5.42-2.06,9.91-5.33,13.46-3.7,4.13-8.88,6.19-15.55,6.19Z"/><path class="e" d="M148.88,68.57l19.44-51.48h5.47l19.58,51.48h-5.18l-5.98-16.2h-22.39l-6.05,16.2h-4.9Zm12.38-20.16h19.51l-7.06-19.22-2.59-7.49h-.14c-.91,2.93-1.75,5.42-2.52,7.49l-7.2,19.22Z"/><path class="e" d="M244.33,68.57V17.09h22.97c4.61,0,8.2,1.24,10.76,3.71,2.57,2.47,3.85,5.87,3.85,10.19,0,6.43-2.88,10.56-8.64,12.38v.22c2.59,.86,4.43,2.34,5.51,4.43,1.08,2.09,1.72,5.17,1.91,9.25,.29,6.53,1.03,10.2,2.23,11.02v.29h-5.18c-.58-.38-.97-1.3-1.19-2.74s-.44-4.37-.68-8.78c-.19-4.37-1.12-7.37-2.77-9-1.66-1.63-4.4-2.45-8.24-2.45h-15.7v22.97h-4.82Zm4.82-27.07h16.49c3.7,0,6.5-.88,8.42-2.63,1.92-1.75,2.88-4.24,2.88-7.45s-.84-5.82-2.52-7.52c-1.68-1.7-4.39-2.56-8.14-2.56h-17.14v20.16Z"/><path class="e" d="M302.87,68.57V21.41h-17.42v-4.32h39.6v4.32h-17.35v47.16h-4.82Z"/><path class="e" d="M320.87,68.57l19.44-51.48h5.47l19.58,51.48h-5.18l-5.98-16.2h-22.39l-6.05,16.2h-4.9Zm12.38-20.16h19.51l-7.06-19.22-2.59-7.49h-.14c-.91,2.93-1.75,5.42-2.52,7.49l-7.2,19.22Z"/><path class="e" d="M231.58,68.29v-22.31h-15.86c-3.65,0-6.32,.86-8,2.57-1.68,1.71-2.61,4.39-2.79,8.01-.16,2.98-.31,5.26-.47,6.85-.16,1.59-.35,2.73-.59,3.41-.23,.68-.51,1.17-.82,1.46h-5.17v-.27c.25-.18,.48-.49,.71-.94,.22-.45,.43-1.1,.62-1.97s.36-2,.52-3.41c.16-1.41,.28-3.18,.37-5.31,.16-2.42,.52-4.46,1.08-6.12,.56-1.66,1.43-3,2.6-4.02,1.18-1.02,2.75-1.76,4.72-2.23v-.17c-3.47-.94-5.96-2.51-7.48-4.72-1.51-2.21-2.27-4.91-2.27-8.11,0-2.87,.65-5.34,1.95-7.43,1.3-2.08,3.1-3.69,5.41-4.82,2.31-1.13,5.01-1.7,8.1-1.7h22.21v51.21h-4.84Zm0-47.01h-16.16c-3.9,0-6.82,.88-8.77,2.65-1.95,1.77-2.92,4.35-2.92,7.73,0,3.23,1,5.76,2.99,7.61,1.99,1.85,5.04,2.77,9.14,2.77h15.72V21.29Z"/></g></svg>