<svg width="994" height="123" viewBox="0 0 994 123" fill="none" xmlns="http://www.w3.org/2000/svg">
<g clip-path="url(#clip0_101_27)">
<rect width="993.606" height="122.194" fill="black"/>
<path d="M0 120.09V1.92999H11.164V109.93H75.97V120.09H0Z" fill="white"/>
<path d="M83.987 120.09L128.033 1.92999H140.516L184.777 120.09H172.616L159.131 82.713H109.125L95.469 120.09H83.987ZM112.203 73.87H156.077L142.983 37.499C141.493 33.419 140.076 29.364 138.806 25.333C137.511 21.3023 136.086 16.6283 134.531 11.311H134.14C133.212 14.411 132.332 17.223 131.502 19.763C130.672 22.303 129.768 25.063 128.742 28.093C127.742 31.122 126.69 34.103 125.591 37.058L112.177 73.898L112.203 73.87Z" fill="white"/>
<path d="M286.261 122.121C278.523 122.227 270.848 120.704 263.737 117.65C257.092 114.751 251.157 110.441 246.343 105.02C241.372 99.3682 237.577 92.7827 235.179 85.648C232.512 77.6898 231.199 69.3406 231.295 60.948C231.199 52.7397 232.479 44.5734 235.082 36.788C237.446 29.6692 241.19 23.0863 246.1 17.416C250.928 11.9089 256.907 7.53083 263.615 4.59201C276.789 -0.799958 291.428 -1.43919 305.022 2.784C310.051 4.4057 314.75 6.91163 318.898 10.184C323.037 13.4888 326.468 17.5943 328.985 22.255C331.461 26.8661 333.138 31.8636 333.944 37.035H322.855C322.004 31.9249 319.908 27.103 316.751 22.9956C313.594 18.8882 309.474 15.6217 304.755 13.485C299.069 10.9365 292.884 9.69278 286.655 9.845C277.348 9.845 269.416 12.068 262.861 16.514C256.225 21.0463 251.008 27.3646 247.813 34.738C244.225 43.029 242.452 51.9915 242.613 61.024C242.613 70.845 244.421 80.25 248.036 87.969C251.328 95.3099 256.641 101.563 263.353 105.998C269.949 110.297 277.66 112.439 286.487 112.423C294.451 112.423 301.104 110.811 306.446 107.586C311.658 104.504 315.95 100.085 318.88 94.786C321.834 89.494 323.656 83.6456 324.23 77.612H335.248C334.678 89.564 329.71 100.883 321.299 109.394C316.967 113.659 311.757 116.927 306.031 118.97C299.684 121.196 292.994 122.288 286.268 122.195L286.261 122.121Z" fill="white"/>
<path d="M406.915 122.05C398.885 122.168 390.917 120.621 383.515 117.506C376.685 114.588 370.561 110.238 365.557 104.75C360.481 99.1239 356.571 92.548 354.051 85.402C351.295 77.5729 349.93 69.3217 350.02 61.022C349.932 52.7303 351.297 44.4873 354.051 36.666C356.565 29.5101 360.476 22.9252 365.557 17.294C370.56 11.8085 376.682 7.46056 383.51 4.544C390.913 1.43159 398.88 -0.115503 406.91 8.71252e-07C414.894 -0.11887 422.815 1.42875 430.167 4.544C437 7.46664 443.129 11.8142 448.147 17.296C453.243 22.9325 457.185 29.5141 459.747 36.668C462.526 44.4843 463.907 52.7288 463.827 61.024C463.909 69.3034 462.528 77.5322 459.747 85.331C457.198 92.4911 453.255 99.0752 448.147 104.703C443.134 110.201 437.003 114.565 430.167 117.503C422.813 120.607 414.896 122.155 406.915 122.05V122.05ZM406.915 112.205C413.466 112.317 419.962 110.991 425.945 108.321C431.455 105.81 436.343 102.115 440.261 97.499C444.287 92.7031 447.341 87.1687 449.251 81.205C451.367 74.683 452.414 67.8615 452.351 61.005C452.41 54.1079 451.364 47.2458 449.251 40.68C447.341 34.7087 444.288 29.166 440.261 24.361C436.342 19.7392 431.455 16.0361 425.945 13.514C419.967 10.8267 413.469 9.49196 406.915 9.605C400.322 9.49494 393.785 10.8292 387.763 13.514C382.247 16.0376 377.352 19.7403 373.423 24.361C369.387 29.1599 366.333 34.7044 364.433 40.68C362.313 47.2441 361.266 54.1073 361.333 61.005C361.262 67.8709 362.309 74.7025 364.433 81.232C366.354 87.176 369.407 92.6923 373.423 97.477C377.352 102.092 382.247 105.787 387.763 108.299C393.789 110.969 400.325 112.294 406.915 112.183V112.205Z" fill="white"/>
<path d="M561.895 120.094V68.619H525.3C516.872 68.619 510.724 70.5977 506.856 74.555C502.972 78.513 500.846 84.669 500.431 93.048C500.064 99.9147 499.706 105.183 499.356 108.854C499.184 111.518 498.725 114.155 497.988 116.72C497.641 117.984 496.986 119.142 496.083 120.091H484.137V119.48C484.84 118.889 485.4 118.145 485.774 117.306C486.43 115.853 486.914 114.328 487.215 112.762C487.655 110.762 488.046 108.145 488.415 104.896C488.784 101.647 489.075 97.567 489.27 92.657C489.492 87.863 490.33 83.1175 491.762 78.537C492.889 74.9628 494.966 71.7622 497.772 69.278C500.937 66.7068 504.676 64.9383 508.672 64.123V63.732C500.659 61.558 494.91 57.9247 491.425 52.832C487.932 47.751 486.197 41.497 486.197 34.119C486.031 28.0988 487.591 22.1567 490.692 16.994C493.701 12.1736 498.031 8.31883 503.167 5.88799C509.013 3.1657 515.408 1.82805 521.855 1.97899H573.107V120.143H561.944L561.895 120.094ZM561.895 11.629H524.595C515.605 11.629 508.863 13.673 504.368 17.761C499.873 21.849 497.626 27.7933 497.626 35.594C497.626 43.045 499.926 48.883 504.515 53.159C509.104 57.435 516.143 59.559 525.597 59.559H561.874V11.653L561.895 11.629Z" fill="white"/>
<path d="M593.066 120.09V1.92999H644.318C650.765 1.77906 657.16 3.11671 663.006 5.839C668.136 8.28636 672.465 12.141 675.489 16.954C678.584 22.1193 680.143 28.0595 679.984 34.079C679.984 41.479 678.241 47.7167 674.756 52.792C671.271 57.8673 665.522 61.5007 657.509 63.692V64.083C661.504 64.8983 665.244 66.6668 668.409 69.238C671.21 71.7267 673.286 74.9257 674.419 78.497C675.851 83.0775 676.688 87.823 676.911 92.617C677.111 97.527 677.4 101.607 677.766 104.856C678.034 107.496 678.434 110.122 678.966 112.722C679.275 114.286 679.758 115.81 680.407 117.266C680.772 118.11 681.333 118.856 682.044 119.44V120.051H670.091C669.188 119.102 668.533 117.944 668.186 116.68C667.463 114.111 667.005 111.476 666.818 108.814C666.451 105.147 666.093 99.8787 665.743 93.008C665.328 84.6287 663.186 78.4643 659.318 74.515C655.434 70.557 649.302 68.579 640.874 68.579H604.279V120.051H593.115L593.066 120.09ZM604.23 59.53H640.507C649.961 59.53 656.988 57.3967 661.589 53.13C666.182 48.855 668.478 43.016 668.478 35.565C668.478 28.114 666.231 21.811 661.736 17.732C657.241 13.653 650.499 11.6 641.509 11.6H604.209V59.509L604.23 59.53Z" fill="white"/>
<path d="M692.395 120.09L736.441 1.92999H748.924L793.19 120.09H781.024L767.535 82.717H717.535L703.877 120.09H692.395ZM720.611 73.87H764.485L751.391 37.499C749.901 33.419 748.484 29.364 747.214 25.333C745.919 21.3043 744.493 16.6303 742.935 11.311H742.544C741.616 14.411 740.736 17.223 739.906 19.763C739.076 22.303 738.172 25.063 737.145 28.093C736.145 31.122 735.093 34.103 733.994 37.058L720.582 73.897L720.611 73.87Z" fill="white"/>
<path d="M808.849 120.09V1.92999H820.013V109.93H884.819V120.09H808.849Z" fill="white"/>
<path d="M892.811 120.09L936.857 1.92999H949.34L993.606 120.09H981.44L967.955 82.713H917.949L904.293 120.09H892.811ZM921.027 73.87H964.901L951.811 37.499C950.321 33.419 948.904 29.364 947.634 25.333C946.339 21.3023 944.914 16.6283 943.359 11.311H942.968C942.04 14.411 941.16 17.223 940.33 19.763C939.5 22.303 938.596 25.063 937.57 28.093C936.57 31.122 935.518 34.103 934.419 37.058L921.007 73.897L921.027 73.87Z" fill="white"/>
</g>
<defs>
<clipPath id="clip0_101_27">
<rect width="993.606" height="122.194" fill="white"/>
</clipPath>
</defs>
</svg>
