<svg id="a" xmlns="http://www.w3.org/2000/svg" width="993.606" height="122.194" viewBox="0 0 993.606 122.194">
  <path id="Trazado_1" data-name="Trazado 1" d="M30.13,157.1V38.94H41.294v108H106.1V157.1Z" transform="translate(-30.13 -37.01)" fill="#fff"/>
  <path id="Trazado_2" data-name="Trazado 2" d="M64.51,157.1,108.556,38.94h12.483L165.3,157.1H153.139l-13.485-37.377H89.648L75.992,157.1H64.51Zm28.216-46.22H136.6L123.506,74.509c-1.49-4.08-2.907-8.135-4.177-12.166q-1.942-6.046-4.275-14.022h-.391c-.928,3.1-1.808,5.912-2.638,8.452s-1.734,5.3-2.76,8.33c-1,3.029-2.052,6.01-3.151,8.965L92.7,110.908Z" transform="translate(19.477 -37.01)" fill="#fff"/>
  <path id="Trazado_3" data-name="Trazado 3" d="M179.776,160.257a55.173,55.173,0,0,1-22.524-4.471,50.009,50.009,0,0,1-17.394-12.63,56.667,56.667,0,0,1-11.164-19.372,75.035,75.035,0,0,1-3.884-24.7,73.5,73.5,0,0,1,3.787-24.16,57.054,57.054,0,0,1,11.018-19.372A49.944,49.944,0,0,1,157.13,42.728a61.3,61.3,0,0,1,41.407-1.808,44.416,44.416,0,0,1,13.876,7.4A39.406,39.406,0,0,1,222.5,60.391a46.322,46.322,0,0,1,4.959,14.78H216.37a31.535,31.535,0,0,0-18.1-23.55,41.761,41.761,0,0,0-18.1-3.64q-13.961,0-23.794,6.669a42.562,42.562,0,0,0-15.048,18.224,63.346,63.346,0,0,0-5.2,26.286c0,9.821,1.808,19.226,5.423,26.945a42.41,42.41,0,0,0,15.317,18.029q9.894,6.449,23.134,6.425,11.946,0,19.959-4.837a33.961,33.961,0,0,0,12.434-12.8,43.722,43.722,0,0,0,5.35-17.174h11.018a48.5,48.5,0,0,1-13.949,31.782,41.758,41.758,0,0,1-15.268,9.576,57.332,57.332,0,0,1-19.763,3.225Z" transform="translate(106.485 -38.136)" fill="#fff"/>
  <path id="Trazado_4" data-name="Trazado 4" d="M230.305,160.2a58.134,58.134,0,0,1-23.4-4.544A51.886,51.886,0,0,1,188.947,142.9a57.364,57.364,0,0,1-11.506-19.348,71.1,71.1,0,0,1-4.031-24.38,71.06,71.06,0,0,1,4.031-24.356,57.238,57.238,0,0,1,11.506-19.372A51.885,51.885,0,0,1,206.9,42.694a58.217,58.217,0,0,1,23.4-4.544,57.42,57.42,0,0,1,23.257,4.544,52.211,52.211,0,0,1,17.98,12.752,58.093,58.093,0,0,1,11.6,19.372,70.679,70.679,0,0,1,4.08,24.356,70.3,70.3,0,0,1-4.08,24.307,57.535,57.535,0,0,1-11.6,19.372,52.245,52.245,0,0,1-17.98,12.8A57.836,57.836,0,0,1,230.305,160.2Zm0-9.845a44.826,44.826,0,0,0,19.03-3.884,41.178,41.178,0,0,0,14.316-10.822,48.207,48.207,0,0,0,8.99-16.294,63.548,63.548,0,0,0,3.1-20.2,64.532,64.532,0,0,0-3.1-20.325,48.324,48.324,0,0,0-8.99-16.319,41.314,41.314,0,0,0-14.316-10.847,44.543,44.543,0,0,0-19.03-3.909,45.183,45.183,0,0,0-19.152,3.909,41.477,41.477,0,0,0-14.34,10.847,47.908,47.908,0,0,0-8.99,16.319,64.1,64.1,0,0,0-3.1,20.325,63.269,63.269,0,0,0,3.1,20.227,48.444,48.444,0,0,0,8.99,16.245,41.339,41.339,0,0,0,14.34,10.822,45.393,45.393,0,0,0,19.152,3.884Z" transform="translate(176.61 -38.15)" fill="#fff"/>
  <path id="Trazado_5" data-name="Trazado 5" d="M306.068,157.075V105.6H269.473q-12.642,0-18.444,5.936c-3.884,3.958-6.01,10.114-6.425,18.493q-.55,10.3-1.075,15.806a37.167,37.167,0,0,1-1.368,7.866,7.944,7.944,0,0,1-1.905,3.371H228.31v-.611a6.057,6.057,0,0,0,1.637-2.174,20.377,20.377,0,0,0,1.441-4.544c.44-2,.831-4.617,1.2-7.866s.66-7.329.855-12.239a56.028,56.028,0,0,1,2.492-14.12,20.663,20.663,0,0,1,6.01-9.259,25.313,25.313,0,0,1,10.9-5.155v-.391q-12.019-3.261-17.247-10.9c-3.493-5.081-5.228-11.335-5.228-18.713a31.57,31.57,0,0,1,4.495-17.125A29.666,29.666,0,0,1,247.34,42.869a41.944,41.944,0,0,1,18.688-3.909h51.252V157.124H306.117Zm0-108.465h-37.3q-13.485,0-20.227,6.132t-6.742,17.833c0,7.451,2.3,13.289,6.889,17.565s11.628,6.4,21.082,6.4h36.277V48.634Z" transform="translate(255.827 -36.981)" fill="#fff"/>
  <path id="Trazado_6" data-name="Trazado 6" d="M272.9,157.1V38.94h51.252a41.944,41.944,0,0,1,18.688,3.909,29.994,29.994,0,0,1,12.483,11.115,31.687,31.687,0,0,1,4.495,17.125q0,11.1-5.228,18.713t-17.247,10.9v.391a25.313,25.313,0,0,1,10.9,5.155,20.8,20.8,0,0,1,6.01,9.259,56.028,56.028,0,0,1,2.492,14.12c.2,4.91.489,8.99.855,12.239a79.014,79.014,0,0,0,1.2,7.866,21.278,21.278,0,0,0,1.441,4.544,5.792,5.792,0,0,0,1.637,2.174v.611H349.925a7.944,7.944,0,0,1-1.905-3.371,39.178,39.178,0,0,1-1.368-7.866q-.55-5.5-1.075-15.806-.623-12.569-6.425-18.493c-3.884-3.958-10.016-5.936-18.444-5.936H284.113v51.472H272.949Zm11.164-60.56h36.277q14.181,0,21.082-6.4c4.593-4.275,6.889-10.114,6.889-17.565s-2.247-13.754-6.742-17.833-11.237-6.132-20.227-6.132h-37.3V96.519Z" transform="translate(320.166 -37.01)" fill="#fff"/>
  <path id="Trazado_7" data-name="Trazado 7" d="M313.56,157.1,357.606,38.94h12.483L414.355,157.1H402.189L388.7,119.727H338.7L325.042,157.1H313.56Zm28.216-46.22H385.65L372.556,74.509c-1.49-4.08-2.907-8.135-4.177-12.166Q366.437,56.3,364.1,48.321h-.391c-.928,3.1-1.808,5.912-2.638,8.452s-1.734,5.3-2.761,8.33c-1,3.029-2.052,6.01-3.151,8.965l-13.412,36.839Z" transform="translate(378.835 -37.01)" fill="#fff"/>
  <path id="Trazado_8" data-name="Trazado 8" d="M361.23,157.1V38.94h11.164v108H437.2V157.1Z" transform="translate(447.619 -37.01)" fill="#fff"/>
  <path id="Trazado_9" data-name="Trazado 9" d="M395.6,157.1,439.646,38.94h12.483L496.395,157.1H484.229l-13.485-37.377H420.738L407.082,157.1H395.6Zm28.216-46.22H467.69L454.6,74.509c-1.49-4.08-2.907-8.135-4.177-12.166q-1.942-6.046-4.275-14.022h-.391c-.928,3.1-1.808,5.912-2.638,8.452s-1.734,5.3-2.76,8.33c-1,3.029-2.052,6.01-3.151,8.965l-13.412,36.839Z" transform="translate(497.211 -37.01)" fill="#fff"/>
</svg>
