<svg width="16" height="42" viewBox="0 0 16 42" fill="none" xmlns="http://www.w3.org/2000/svg">
<path d="M7.11859 0.0142335C6.33459 0.0477661 5.58439 0.123214 5.3208 0.198663C5.0437 0.274111 5.03694 0.278302 4.98963 0.53818C4.96935 0.684885 4.90176 0.940571 4.84769 1.10823C4.71928 1.52739 4.72604 2.11421 4.86121 2.3196C4.96259 2.47049 4.96935 2.63397 4.89501 4.24353C4.8139 6.03752 4.65169 9.0303 4.58411 9.94826C4.50976 11.0255 4.36107 11.2141 2.89445 12.1446C1.37376 13.1045 0.880381 13.532 0.407277 14.3033C-0.0320342 15.0117 -0.0117583 14.6805 0.00851757 21.5966C0.0220348 25.0547 0.0625866 30.487 0.0896211 33.6684C0.150449 39.897 0.150449 39.9222 0.508656 40.5132C0.839829 41.0581 1.63059 41.3767 3.36756 41.6533C5.05045 41.9216 7.07128 42.0389 9.24756 41.9886C12.2484 41.9174 14.1476 41.6323 15.1073 41.1126C15.4587 40.9198 15.6818 40.6096 15.8845 40.0563C16.0265 39.6623 16.04 38.015 15.9116 35.7013C15.844 34.3977 15.844 32.6666 15.9116 26.6684C16.0062 18.0589 15.9589 15.3973 15.6953 14.6805C15.4317 13.9722 14.303 12.983 12.5796 11.956C12.0254 11.6207 11.7009 11.3231 11.4779 10.9291C11.2481 10.5309 11.14 9.05126 11.0386 5.21597C10.9778 2.85612 10.9778 2.5166 11.0724 2.29864C11.194 1.99685 11.1197 1.30524 10.9034 0.714226C10.7412 0.286686 10.6128 0.181896 10.1329 0.0854902C9.78825 0.0184251 8.01749 -0.0234907 7.11859 0.0142335Z" fill="#326E7B"/>
</svg>
