<svg width="16" height="42" viewBox="0 0 16 42" fill="none" xmlns="http://www.w3.org/2000/svg">
<path d="M2.45166 0.0431704C2.18056 0.40088 0.694178 7.17269 0.231437 10.1515C0.0304482 11.4282 -0.0209675 12.2423 0.0070774 13.4141C0.0771897 15.9242 0.605369 17.8855 1.70847 19.6987C2.60591 21.185 3.70901 22.289 5.3917 23.3806C5.85912 23.6767 6.32654 24.0282 6.43404 24.1454C6.66308 24.4044 6.90613 25.0396 7.02299 25.6626C7.20528 26.6493 7.25202 27.7163 7.25202 30.9604C7.24734 36.9859 7.05103 38.059 5.73292 39.2247C5.18137 39.7119 4.7233 39.9956 3.73238 40.4581C2.33013 41.1119 1.9562 41.3956 1.9562 41.7903V42H8.00923H14.0623V41.8211C14.0623 41.7225 14.0108 41.5806 13.9454 41.4819C13.7818 41.2476 13.1181 40.8467 12.1646 40.4088C11.0194 39.8722 10.3229 39.385 9.79943 38.7436C8.89732 37.6396 8.70101 36.0546 8.74775 30.2881C8.77112 27.3648 8.80384 26.6617 8.97211 25.7181C9.09364 25.0335 9.23853 24.6203 9.48627 24.2687C9.64986 24.0344 9.85552 23.874 10.6034 23.3806C11.8093 22.5912 12.4497 22.0546 13.1788 21.2097C14.3614 19.8467 15.1233 18.385 15.558 16.6581C16.0581 14.6784 16.1329 12.5753 15.787 10.2996C15.4178 7.8511 14.0763 1.55418 13.665 0.326871L13.5528 -1.45007e-06H8.01858C4.9757 -1.45007e-06 2.47036 0.0185008 2.45166 0.0431704Z" fill="#326E7B"/>
</svg>
