<svg width="62" height="46" viewBox="0 0 62 46" fill="none" xmlns="http://www.w3.org/2000/svg">
<path d="M0.194 5.9612C0.584587 4.26777 1.54489 2.75574 2.91763 1.67274C4.29036 0.589735 5.99417 -4.17023e-05 7.75 2.21162e-09H54.25C56.0058 -4.17023e-05 57.7096 0.589735 59.0824 1.67274C60.4551 2.75574 61.4154 4.26777 61.806 5.9612L31 24.5868L0.194 5.9612ZM0 10.3386V37.5706L22.487 23.9319L0 10.3386ZM26.2 26.1814L0.74 41.6186C1.36904 42.9307 2.36184 44.0391 3.60286 44.8147C4.84387 45.5904 6.28204 46.0014 7.75 46H54.25C55.7181 46.0002 57.156 45.588 58.3965 44.8113C59.6369 44.0346 60.6289 42.9253 61.257 41.6127L35.8 26.1775L31 29.0839L26.2 26.1824V26.1814ZM39.513 23.9398L62 37.5706V10.3386L39.513 23.9319V23.9398Z" fill="white"/>
</svg>
