<svg width="55" height="55" viewBox="0 0 55 55" fill="none" xmlns="http://www.w3.org/2000/svg">
<g clip-path="url(#clip0_109_2)" filter="url(#filter0_d_109_2)">
<path d="M27.25 0C20.941 0 20.15 0.029 17.668 0.14C15.7382 0.179628 13.829 0.545108 12.021 1.221C10.4686 1.80325 9.06219 2.71756 7.9 3.9C6.71829 5.06279 5.80409 6.46906 5.221 8.021C4.54424 9.82563 4.17872 11.732 4.14 13.659C4.029 16.144 4 16.935 4 23.253C4 29.571 4.029 30.353 4.14 32.835C4.17991 34.7638 4.54538 36.672 5.221 38.479C5.81895 40.0232 6.7326 41.4256 7.90351 42.5965C9.07442 43.7674 10.4768 44.681 12.021 45.279C13.8277 45.9557 15.7361 46.3212 17.665 46.36C20.147 46.47 20.937 46.499 27.253 46.499C33.569 46.499 34.353 46.47 36.838 46.36C38.7677 46.3198 40.6768 45.9543 42.485 45.279C44.0292 44.681 45.4316 43.7674 46.6025 42.5965C47.7734 41.4256 48.6871 40.0232 49.285 38.479C49.9593 36.6716 50.3247 34.7636 50.366 32.835C50.476 30.356 50.505 29.565 50.505 23.25C50.505 16.935 50.476 16.144 50.366 13.662C50.3247 11.7343 49.9593 9.82737 49.285 8.021C48.7002 6.46847 47.784 5.06213 46.6 3.9C45.4393 2.71639 44.0338 1.801 42.482 1.218C40.6731 0.541883 38.7627 0.177056 36.832 0.139C34.35 0.029 33.562 0 27.244 0H27.253H27.25ZM25.166 4.191H27.253C33.461 4.191 34.196 4.211 36.646 4.325C38.1208 4.34248 39.5817 4.61308 40.965 5.125C41.9751 5.49846 42.8888 6.09335 43.639 6.866C44.4114 7.61584 45.0054 8.52969 45.377 9.54C45.8908 10.9217 46.1614 12.3819 46.177 13.856C46.29 16.306 46.314 17.041 46.314 23.246C46.314 29.451 46.291 30.189 46.177 32.639C46.1596 34.1129 45.889 35.5728 45.377 36.955C44.9892 37.9571 44.396 38.867 43.6357 39.6263C42.8754 40.3856 41.9646 40.9775 40.962 41.364C39.5802 41.8774 38.12 42.148 36.646 42.164C34.196 42.274 33.461 42.301 27.253 42.301C21.045 42.301 20.307 42.275 17.853 42.164C16.3791 42.147 14.9191 41.8764 13.537 41.364C12.527 40.9918 11.6132 40.3979 10.863 39.626C10.0906 38.8752 9.4964 37.9607 9.124 36.95C8.61167 35.5679 8.34105 34.1079 8.324 32.634C8.214 30.184 8.19 29.449 8.19 23.234C8.19 17.019 8.213 16.294 8.324 13.844C8.34109 12.3691 8.6117 10.9082 9.124 9.525C9.49871 8.51649 10.0942 7.60456 10.867 6.856C11.6168 6.08361 12.5307 5.48964 13.541 5.118C14.9231 4.60561 16.3831 4.33499 17.857 4.318C20.002 4.218 20.833 4.19 25.166 4.187V4.193V4.191ZM39.666 8.05C39.1142 8.05 38.5748 8.21363 38.116 8.5202C37.6571 8.82677 37.2995 9.26251 37.0884 9.77231C36.8772 10.2821 36.822 10.8431 36.9296 11.3843C37.0373 11.9255 37.303 12.4226 37.6932 12.8128C38.0834 13.203 38.5805 13.4687 39.1217 13.5764C39.6629 13.684 40.2239 13.6288 40.7337 13.4176C41.2435 13.2065 41.6792 12.8489 41.9858 12.39C42.2924 11.9312 42.456 11.3918 42.456 10.84C42.456 10.1 42.1621 9.3904 41.6388 8.86717C41.1156 8.34395 40.406 8.05 39.666 8.05V8.05ZM27.256 11.311C24.8942 11.3106 22.5853 12.0106 20.6214 13.3224C18.6574 14.6343 17.1266 16.4991 16.2225 18.681C15.3184 20.8629 15.0817 23.2639 15.5422 25.5803C16.0027 27.8968 17.1398 30.0247 18.8097 31.6949C20.4796 33.365 22.6073 34.5025 24.9237 34.9634C27.2401 35.4243 29.6411 35.188 31.8232 34.2842C34.0052 33.3805 35.8703 31.85 37.1824 29.8863C38.4946 27.9225 39.195 25.6138 39.195 23.252C39.1951 21.6838 38.8863 20.1309 38.2862 18.682C37.6861 17.2331 36.8065 15.9167 35.6975 14.8078C34.5885 13.6989 33.272 12.8194 31.8231 12.2194C30.3742 11.6194 28.8212 11.3107 27.253 11.311H27.256ZM27.256 15.499C28.7888 15.5 30.2869 15.9554 31.5609 16.8077C32.8348 17.66 33.8275 18.8709 34.4134 20.2873C34.9993 21.7037 35.1521 23.262 34.8525 24.7652C34.5528 26.2684 33.8142 27.6491 32.73 28.7325C31.6458 29.816 30.2647 30.5538 28.7613 30.8524C27.2579 31.1511 25.6997 30.9973 24.2837 30.4105C22.8676 29.8237 21.6574 28.8302 20.8059 27.5557C19.9545 26.2812 19.5 24.7828 19.5 23.25C19.5001 22.232 19.7008 21.2241 20.0905 20.2837C20.4802 19.3433 21.0513 18.4888 21.7713 17.7692C22.4912 17.0495 23.3459 16.4787 24.2864 16.0893C25.227 15.7 26.235 15.4997 27.253 15.5L27.256 15.499Z" fill="white"/>
</g>
<defs>
<filter id="filter0_d_109_2" x="0" y="0" width="54.5" height="54.5" filterUnits="userSpaceOnUse" color-interpolation-filters="sRGB">
<feFlood flood-opacity="0" result="BackgroundImageFix"/>
<feColorMatrix in="SourceAlpha" type="matrix" values="0 0 0 0 0 0 0 0 0 0 0 0 0 0 0 0 0 0 127 0" result="hardAlpha"/>
<feOffset dy="4"/>
<feGaussianBlur stdDeviation="2"/>
<feComposite in2="hardAlpha" operator="out"/>
<feColorMatrix type="matrix" values="0 0 0 0 0 0 0 0 0 0 0 0 0 0 0 0 0 0 0.25 0"/>
<feBlend mode="normal" in2="BackgroundImageFix" result="effect1_dropShadow_109_2"/>
<feBlend mode="normal" in="SourceGraphic" in2="effect1_dropShadow_109_2" result="shape"/>
</filter>
<clipPath id="clip0_109_2">
<rect width="46.5" height="46.5" fill="white" transform="translate(4)"/>
</clipPath>
</defs>
</svg>
