<svg width="26" height="26" viewBox="0 0 26 26" fill="none" xmlns="http://www.w3.org/2000/svg">
<path d="M12.38 0.00519629C9.42627 0.161706 6.71243 1.25117 4.48241 3.17197C4.20188 3.41385 3.57373 4.03176 3.32369 4.31226C2.27271 5.48913 1.46364 6.79405 0.896482 8.23109C0.441126 9.38357 0.162627 10.5584 0.0365911 11.8735C-0.012197 12.3857 -0.012197 13.6175 0.0365911 14.1297C0.256138 16.4062 0.963565 18.4042 2.20766 20.26C2.92932 21.3393 3.90711 22.3922 4.9398 23.2072C6.95027 24.7926 9.25958 25.7114 11.8718 25.9634C12.384 26.0122 13.6159 26.0122 14.1282 25.9634C16.3908 25.7459 18.4033 25.0366 20.2349 23.8109C20.922 23.3495 21.483 22.8922 22.103 22.2804C22.6397 21.7539 22.9589 21.3921 23.3878 20.823C24.8677 18.8636 25.7215 16.642 25.9634 14.1297C26.0122 13.6175 26.0122 12.3857 25.9634 11.8735C25.6849 8.98315 24.5831 6.44851 22.6763 4.31226C22.4263 4.03176 21.7981 3.41385 21.5176 3.17197C19.4217 1.365 16.9132 0.299922 14.1486 0.0438155C13.8192 0.0133267 12.693 -0.0110644 12.38 0.00519629ZM13.4472 4.85293C14.6974 4.97691 15.7972 5.46677 16.5676 6.24118C17.0677 6.74323 17.4377 7.40586 17.6125 8.1132C17.702 8.475 17.7263 8.71688 17.7263 9.28194C17.7263 9.98522 17.6633 10.4344 17.5007 10.9202C17.2202 11.7576 16.6611 12.3938 15.8033 12.8471C15.3601 13.0809 14.9434 13.2231 14.236 13.3776L13.7969 13.4752L13.7887 14.1073C13.7786 14.7923 13.7725 14.8329 13.6505 15.0748C13.5468 15.2801 13.3354 15.4549 13.0793 15.5444C12.8882 15.6135 12.4999 15.6135 12.2987 15.5464C11.9531 15.4305 11.7478 15.2069 11.6441 14.8309C11.6116 14.711 11.6075 14.5931 11.6075 13.5605C11.6075 12.5422 11.6116 12.4101 11.6421 12.3105C11.7173 12.0686 11.8555 12.0097 12.7561 11.8247C13.3862 11.6946 13.7054 11.5849 14.0428 11.3836C14.7157 10.9792 15.0918 10.3673 15.1528 9.5787C15.2056 8.88355 15.0023 8.35508 14.486 7.83677C14.2583 7.60912 14.1221 7.50952 13.8741 7.3896C13.5326 7.22496 13.2277 7.15992 12.7662 7.15992C12.1381 7.15788 11.6909 7.27577 11.2721 7.55017C11.0444 7.70059 10.6704 8.07458 10.3634 8.45874C10.0829 8.80835 9.78608 9.10511 9.65801 9.16202C9.54011 9.21283 9.24738 9.24129 9.07662 9.21893C8.88554 9.19251 8.74324 9.11527 8.57654 8.9486C8.3265 8.69859 8.24722 8.46484 8.26959 8.03596C8.30414 7.40383 8.50946 6.92007 8.96278 6.40989C9.46286 5.85093 10.1622 5.40579 10.9875 5.12733C11.8128 4.84886 12.567 4.76552 13.4472 4.85293ZM12.9289 19.0404C13.0651 19.0668 13.2907 19.1807 13.4289 19.2904C13.5672 19.4022 13.681 19.5465 13.7908 19.7498C14.1648 20.4449 13.7989 21.3149 13.0203 21.5811C12.8191 21.6503 12.4959 21.6462 12.2865 21.575C12.0649 21.4978 11.8921 21.3901 11.7274 21.2254C11.4693 20.9673 11.3595 20.6604 11.3798 20.26C11.3961 19.9022 11.514 19.6522 11.7823 19.3941C12.1279 19.0648 12.4837 18.955 12.9289 19.0404Z" fill="#FFAEEA"/>
</svg>
